<svg width="300" height="300" viewBox="0 0 300 300" fill="none" xmlns="http://www.w3.org/2000/svg">
<circle cx="150" cy="150" r="129" fill="#030818" stroke="#1C3AA6" stroke-width="8"/>
<g filter="url(#filter0_f_1_2)">
<mask id="path-2-outside-1_1_2" maskUnits="userSpaceOnUse" x="17" y="16" width="225" height="267" fill="black">
<rect fill="white" x="17" y="16" width="225" height="267"/>
<path d="M230.238 245.848C214.865 258.717 196.623 267.7 177.05 272.038C157.477 276.376 137.148 275.943 117.777 270.775C98.4067 265.607 80.5634 255.856 65.7529 242.344C50.9423 228.832 39.5991 211.956 32.6801 193.14C25.7612 174.324 23.4695 154.119 25.9986 134.231C28.5277 114.343 35.8032 95.3555 47.2114 78.8698C58.6196 62.3841 73.8256 48.8843 91.5466 39.5093C109.268 30.1343 128.984 25.1592 149.031 25.0038L150 150L230.238 245.848Z"/>
</mask>
<path d="M230.238 245.848C214.865 258.717 196.623 267.7 177.05 272.038C157.477 276.376 137.148 275.943 117.777 270.775C98.4067 265.607 80.5634 255.856 65.7529 242.344C50.9423 228.832 39.5991 211.956 32.6801 193.14C25.7612 174.324 23.4695 154.119 25.9986 134.231C28.5277 114.343 35.8032 95.3555 47.2114 78.8698C58.6196 62.3841 73.8256 48.8843 91.5466 39.5093C109.268 30.1343 128.984 25.1592 149.031 25.0038L150 150L230.238 245.848Z" fill="#030818"/>
<path d="M230.238 245.848C214.865 258.717 196.623 267.7 177.05 272.038C157.477 276.376 137.148 275.943 117.777 270.775C98.4067 265.607 80.5634 255.856 65.7529 242.344C50.9423 228.832 39.5991 211.956 32.6801 193.14C25.7612 174.324 23.4695 154.119 25.9986 134.231C28.5277 114.343 35.8032 95.3555 47.2114 78.8698C58.6196 62.3841 73.8256 48.8843 91.5466 39.5093C109.268 30.1343 128.984 25.1592 149.031 25.0038L150 150L230.238 245.848Z" stroke="#28E7DB" stroke-width="16" mask="url(#path-2-outside-1_1_2)"/>
</g>
<circle cx="150" cy="150" r="125" fill="#030818"/>
<path d="M78 224.4C74 221.867 71.8 217.933 71.4 212.6C71 207.4 71.6667 201.533 73.4 195C75.2667 188.467 77.8 181.667 81 174.6C84.3333 167.533 87.8 160.933 91.4 154.8C95 148.533 98.4 143.067 101.6 138.4C104.933 133.733 107.467 130.6 109.2 129C109.2 128.467 109.2 127.467 109.2 126C109.2 124.533 109.2 123.6 109.2 123.2C108.933 121.867 108.533 119.6 108 116.4C107.6 113.2 107.067 109.8 106.4 106.2C105.867 102.6 105.267 99.2667 104.6 96.2C104.067 93 103.667 90.7333 103.4 89.4C102.867 88.3333 102.067 87.5333 101 87C100.067 86.3333 99 86.2667 97.8 86.8L52.8 103.4C51.6 103.933 50.4667 103.867 49.4 103.2C48.4667 102.533 47.7333 101.667 47.2 100.6C46.8 99.5333 46.8 98.4667 47.2 97.4C47.6 96.3333 48.4667 95.5333 49.8 95L142.8 64.2H151.2C152 66.3333 152.2 67.9333 151.8 69C151.533 70.0667 150.933 70.8 150 71.2C149.067 71.6 147.933 71.8667 146.6 72C145.4 72.1333 144.133 72.3333 142.8 72.6C141.733 73 139.867 73.6 137.2 74.4C134.533 75.0667 131.667 75.8667 128.6 76.8C125.533 77.7333 122.667 78.6 120 79.4C117.467 80.2 115.667 80.7333 114.6 81C114.067 87.1333 114.267 93.3333 115.2 99.6C116.133 105.867 117.867 111.867 120.4 117.6L148.4 103.4C149.867 102.6 151.333 102.533 152.8 103.2C154.267 103.733 155.333 104.533 156 105.6C156.8 106.667 157.067 107.867 156.8 109.2C156.533 110.4 155.6 111.267 154 111.8C151.467 112.733 148.467 113.733 145 114.8C141.667 115.867 138.333 117.133 135 118.6C131.667 119.933 128.6 121.667 125.8 123.8C123.133 125.8 121.333 128.4 120.4 131.6C120 132.667 119.6 135.2 119.2 139.2C118.933 143.2 118.533 148 118 153.6C117.6 159.067 116.933 165.133 116 171.8C115.2 178.333 114.133 184.733 112.8 191C111.6 197.4 110 203.333 108 208.8C106.133 214.4 103.733 218.867 100.8 222.2C98 225.667 94.7333 227.667 91 228.2C87.2667 228.867 82.9333 227.6 78 224.4ZM83.6 215.8C85.0667 218.867 86.7333 219.933 88.6 219C90.4667 218.067 92.3333 216 94.2 212.8C96.0667 209.733 97.8667 205.8 99.6 201C101.333 196.333 102.867 191.733 104.2 187.2C105.533 182.667 106.667 178.6 107.6 175C108.533 171.4 109.067 169.067 109.2 168C109.2 167.067 109.2 165.333 109.2 162.8V145.6C109.2 143.067 109.2 141.2 109.2 140C104.533 144.8 100.4 150.267 96.8 156.4C93.3333 162.4 90.4667 168.733 88.2 175.4C86.0667 182.067 84.5333 188.867 83.6 195.8C82.6667 202.733 82.6667 209.4 83.6 215.8ZM188.939 199.4V151.6C188.139 152.267 186.872 153.333 185.139 154.8C183.539 156.133 181.672 157.6 179.539 159.2C177.406 160.667 175.206 161.8 172.939 162.6C170.672 163.4 168.539 163.533 166.539 163C165.472 162.6 164.672 162.067 164.139 161.4C163.739 160.733 163.472 160 163.339 159.2C163.206 158.4 163.139 157.6 163.139 156.8C163.139 155.867 163.272 155.067 163.539 154.4L193.139 137.4V89.6C193.139 88.6667 193.739 88 194.939 87.6C196.139 87.0667 197.406 86.8 198.739 86.8C200.206 86.8 201.539 87.0667 202.739 87.6C203.939 88 204.539 88.6667 204.539 89.6V129C209.072 126.733 213.472 123.8 217.739 120.2C222.139 116.6 225.939 112.933 229.139 109.2C232.339 105.333 234.606 101.6 235.939 98C237.406 94.2667 237.406 91.0667 235.939 88.4C234.606 85.6 231.539 83.5333 226.739 82.2C221.939 80.8667 214.939 80.5333 205.739 81.2C203.739 81.4667 201.206 82.0667 198.139 83C195.206 83.9333 191.939 85.1333 188.339 86.6C184.739 87.9333 181.072 89.4 177.339 91C173.739 92.4667 170.206 93.8 166.739 95C163.406 96.2 160.472 97.1333 157.939 97.8C155.406 98.3333 153.539 98.4667 152.339 98.2C152.606 96.2 153.339 94.5333 154.539 93.2C155.739 91.7333 157.139 90.4 158.739 89.2C160.472 88 162.206 87 163.939 86.2C165.806 85.2667 167.606 84.5333 169.339 84C176.006 81.7333 181.672 79.8667 186.339 78.4C191.139 76.9333 195.806 75.8 200.339 75C204.872 74.2 209.739 73.8667 214.939 74C220.139 74 226.472 74.4667 233.939 75.4C239.939 77 244.072 79.1333 246.339 81.8C248.739 84.3333 249.806 87.2 249.539 90.4C249.272 93.6 247.939 97.0667 245.539 100.8C243.139 104.4 240.206 108 236.739 111.6C233.272 115.2 229.606 118.733 225.739 122.2C221.872 125.667 218.272 128.8 214.939 131.6C211.606 134.4 208.806 136.8 206.539 138.8C204.272 140.8 203.072 142.267 202.939 143.2L197.339 193.6L196.339 195C195.806 195.667 195.139 196.4 194.339 197.2C193.539 198 192.606 198.667 191.539 199.2C190.606 199.733 189.739 199.8 188.939 199.4Z" fill="#D3EAF1"/>
<defs>
<filter id="filter0_f_1_2" x="6.99997" y="6.94198" width="244.507" height="286.058" filterUnits="userSpaceOnUse" color-interpolation-filters="sRGB">
<feFlood flood-opacity="0" result="BackgroundImageFix"/>
<feBlend mode="normal" in="SourceGraphic" in2="BackgroundImageFix" result="shape"/>
<feGaussianBlur stdDeviation="5" result="effect1_foregroundBlur_1_2"/>
</filter>
</defs>
</svg>
